HIERARCHY
ROOT Hips
{
    OFFSET 0.000000 0.000000 0.000000
    CHANNELS 6 Xposition Yposition Zposition Zrotation Xrotation Yrotation
    JOINT Spine
    {
        OFFSET -0.000000 14.517291 0.000000
        CHANNELS 3 Zrotation Xrotation Yrotation
        JOINT Spine1
        {
            OFFSET -0.000000 37.558300 0.000000
            CHANNELS 3 Zrotation Xrotation Yrotation
            JOINT Neck
            {
                OFFSET -0.000000 37.404057 3.400369
                CHANNELS 3 Zrotation Xrotation Yrotation
                JOINT Head
                {
                    OFFSET -0.000000 24.785618 -3.540803
                    CHANNELS 3 Zrotation Xrotation Yrotation
                    End Site
                    {
                        OFFSET -0.000000 35.408028 0.000000
                    }
                }
            }
            JOINT LeftShoulder
            {
                OFFSET 6.992933 33.973492 -0.192664
                CHANNELS 3 Zrotation Xrotation Yrotation
                JOINT LeftArm
                {
                    OFFSET 21.527611 0.000000 0.000000
                    CHANNELS 3 Zrotation Xrotation Yrotation
                    JOINT LeftForeArm
                    {
                        OFFSET 56.353916 0.000000 0.000000
                        CHANNELS 3 Zrotation Xrotation Yrotation
                        JOINT LeftHand
                        {
                            OFFSET 47.774071 0.000000 0.000000
                            CHANNELS 3 Zrotation Xrotation Yrotation
                            End Site
                            {
                                OFFSET 26.556021 0.000000 0.000000
                            }
                        }
                    }
                }
            }
            JOINT RightShoulder
            {
                OFFSET -7.065357 33.973492 -0.192664
                CHANNELS 3 Zrotation Xrotation Yrotation
                JOINT RightArm
                {
                    OFFSET -21.527611 0.000000 0.000000
                    CHANNELS 3 Zrotation Xrotation Yrotation
                    JOINT RightForeArm
                    {
                        OFFSET -56.353916 0.000000 0.000000
                        CHANNELS 3 Zrotation Xrotation Yrotation
                        JOINT RightHand
                        {
                            OFFSET -47.774071 0.000000 0.000000
                            CHANNELS 3 Zrotation Xrotation Yrotation
                            End Site
                            {
                                OFFSET -26.556021 0.000000 0.000000
                            }
                        }
                    }
                }
            }
        }
    }
    JOINT LeftUpLeg
    {
        OFFSET 17.704014 0.000000 0.000000
        CHANNELS 3 Zrotation Xrotation Yrotation
        JOINT LeftLeg
        {
            OFFSET -0.000000 -81.181816 0.000000
            CHANNELS 3 Zrotation Xrotation Yrotation
            JOINT LeftFoot
            {
                OFFSET -0.000000 -62.821102 0.000000
                CHANNELS 3 Zrotation Xrotation Yrotation
                JOINT LeftToeBase
                {
                    OFFSET -0.000000 -11.507608 26.556021
                    CHANNELS 3 Zrotation Xrotation Yrotation
                    End Site
                    {
                        OFFSET -0.000000 0.000000 7.081605
                    }
                }
            }
        }
    }
    JOINT RightUpLeg
    {
        OFFSET -17.704014 0.000000 0.000000
        CHANNELS 3 Zrotation Xrotation Yrotation
        JOINT RightLeg
        {
            OFFSET -0.000000 -81.181816 0.000000
            CHANNELS 3 Zrotation Xrotation Yrotation
            JOINT RightFoot
            {
                OFFSET -0.000000 -62.821102 0.000000
                CHANNELS 3 Zrotation Xrotation Yrotation
                JOINT RightToeBase
                {
                    OFFSET -0.000000 -11.507608 26.556021
                    CHANNELS 3 Zrotation Xrotation Yrotation
                    End Site
                    {
                        OFFSET -0.000000 0.000000 7.081605
                    }
                }
            }
        }
    }
}
MOTION
Frames:    9
Frame Time:    0.008333
15.452626    155.611771    -106.276619    0.750376    -9.201399    46.075142    -3.444857    -0.657515    -3.282219    -1.785348    6.264494    -0.990944    2.223747    4.477624    -17.564514    17.445473    2.063156    -16.438171    10.195978    1.049916    -19.281414    -15.885943    7.159900    -47.495338    -9.377834    -12.120729    -96.913971    -14.371691    -19.406723    -23.944893    -0.720390    5.541941    -5.267159    32.166512    -12.004704    49.707726    -24.944590    -13.392016    65.071579    -11.896729    -1.178058    36.515434    19.752319    -3.409833    -1.259450    -14.435246    37.018536    -18.554121    6.194360    -26.549543    42.157391    0.000000    0.000000    0.000000    -17.753344    -13.074636    -15.256216    13.640808    31.630526    -15.469942    11.677443    3.497880    -20.313202    0.000000    0.000000    0.000000    
15.457119    155.613724    -106.267990    0.753174    -9.206779    46.074696    -3.459642    -0.670537    -3.265883    -1.761457    6.269570    -0.986592    2.218948    4.500708    -17.572796    17.444059    2.043565    -16.443094    10.024916    1.258177    -19.216486    -16.335316    7.530951    -47.835014    -9.081198    -12.822804    -97.056160    -14.506617    -19.787161    -23.734079    -0.726176    5.573430    -5.277108    32.187534    -12.007036    49.739876    -24.962805    -13.394051    65.073090    -11.908504    -1.171640    36.519569    19.756529    -3.396256    -1.252990    -14.432770    37.011444    -18.554749    6.198368    -26.545412    42.151096    0.000000    0.000000    0.000000    -17.749754    -13.062748    -15.265833    13.636420    31.627697    -15.470073    11.664156    3.494125    -20.296322    0.000000    0.000000    0.000000    
15.460563    155.614029    -106.260063    0.754834    -9.212963    46.067123    -3.473698    -0.695311    -3.244848    -1.742743    6.306541    -0.979787    2.236837    4.481537    -17.566719    17.418507    2.032249    -16.440405    9.867263    1.462147    -19.126526    -16.807522    7.865536    -48.199951    -8.812709    -13.467938    -97.200989    -14.456954    -20.186373    -23.479900    -0.737365    5.560123    -5.280580    32.202301    -11.987180    49.748562    -24.962002    -13.415816    65.080597    -11.904729    -1.187361    36.488510    19.762646    -3.379763    -1.249800    -14.432655    37.003399    -18.553308    6.195038    -26.556740    42.143600    0.000000    0.000000    0.000000    -17.742544    -13.055897    -15.260553    13.632771    31.624252    -15.454799    11.669530    3.487284    -20.304037    0.000000    0.000000    0.000000    
15.468165    155.616531    -106.252380    0.759165    -9.213703    46.062439    -3.491140    -0.715899    -3.225213    -1.725799    6.328317    -0.973588    2.228911    4.502419    -17.573290    17.446482    1.994840    -16.436958    9.701488    1.670098    -19.034674    -17.196840    8.310979    -48.580975    -8.426623    -14.304266    -97.322151    -14.574106    -20.598211    -23.286762    -0.734190    5.575953    -5.296387    32.191124    -11.973380    49.763176    -24.970671    -13.435999    65.086830    -11.910187    -1.201851    36.488518    19.759069    -3.363175    -1.237141    -14.426134    36.989353    -18.549150    6.184811    -26.555506    42.133873    0.000000    0.000000    0.000000    -17.744390    -13.049322    -15.256846    13.634100    31.623617    -15.459235    11.668100    3.485628    -20.296183    0.000000    0.000000    0.000000    
15.475666    155.620438    -106.244637    0.762755    -9.217689    46.056347    -3.496438    -0.733655    -3.209537    -1.716550    6.352260    -0.968314    2.319836    4.522724    -17.554670    17.307526    1.879780    -16.426380    9.521258    1.870074    -18.934061    -17.703859    8.579715    -48.949238    -8.223501    -14.853165    -97.446373    -14.573638    -20.963863    -23.012556    -0.745420    5.587210    -5.314303    32.210346    -11.945820    49.803070    -25.004171    -13.461573    65.068855    -11.916122    -1.209871    36.462723    19.758566    -3.344077    -1.243716    -14.429511    36.970253    -18.533970    6.189883    -26.547880    42.128441    0.000000    0.000000    0.000000    -17.739071    -13.042154    -15.264939    13.616257    31.624369    -15.452651    11.674077    3.493395    -20.281071    0.000000    0.000000    0.000000    
15.481808    155.621323    -106.237984    0.765613    -9.219612    46.049641    -3.513940    -0.749141    -3.178612    -1.699894    6.369450    -0.958511    2.346027    4.518145    -17.556410    17.293736    1.855845    -16.429264    9.355260    2.086967    -18.848972    -18.146820    8.941200    -49.354336    -7.860792    -15.583482    -97.522858    -14.616395    -21.308664    -22.805477    -0.742117    5.567284    -5.336818    32.199158    -11.899713    49.796024    -25.041578    -13.493083    65.047501    -11.893089    -1.219432    36.492798    19.757328    -3.330069    -1.244892    -14.425544    36.961670    -18.540646    6.193764    -26.546453    42.134686    0.000000    0.000000    0.000000    -17.741713    -13.036766    -15.255965    13.627030    31.621378    -15.450381    11.671233    3.494659    -20.286261    0.000000    0.000000    0.000000    
15.489954    155.624268    -106.232384    0.771339    -9.225940    46.044151    -3.522477    -0.761525    -3.149322    -1.693528    6.392186    -0.948617    2.377978    4.510470    -17.559814    17.275320    1.828127    -16.434595    9.200834    2.307968    -18.768572    -18.584946    9.300670    -49.746792    -7.516849    -16.305882    -97.617355    -14.591317    -21.686144    -22.569174    -0.737179    5.566027    -5.369318    32.180660    -11.845441    49.809093    -25.090477    -13.550772    65.010994    -11.844537    -1.242197    36.504959    19.753971    -3.311064    -1.243114    -14.419769    36.953156    -18.548912    6.207942    -26.541773    42.148003    0.000000    0.000000    0.000000    -17.741627    -13.027643    -15.267298    13.624989    31.624290    -15.447394    11.668345    3.496591    -20.284607    0.000000    0.000000    0.000000    
15.496725    155.626831    -106.223488    0.773181    -9.228626    46.041824    -3.534164    -0.780739    -3.132521    -1.687085    6.412211    -0.942903    2.389917    4.504365    -17.555815    17.287542    1.823910    -16.429680    9.030414    2.525999    -18.673529    -19.120527    9.464029    -50.123775    -7.362081    -16.680870    -97.691193    -14.463215    -21.947248    -22.328775    -0.730454    5.569146    -5.375940    32.194183    -11.857288    49.812325    -25.071974    -13.535615    65.026344    -11.853171    -1.236799    36.502342    19.754778    -3.300108    -1.254270    -14.421563    36.946213    -18.542587    6.190711    -26.548323    42.138248    0.000000    0.000000    0.000000    -17.743505    -13.018890    -15.261833    13.636804    31.620100    -15.429485    11.669147    3.490357    -20.306396    0.000000    0.000000    0.000000    
15.504318    155.629272    -106.221436    0.773953    -9.226445    46.038303    -3.544600    -0.801267    -3.108731    -1.680393    6.431386    -0.934854    2.414851    4.492859    -17.556658    17.280228    1.812286    -16.432705    8.870672    2.734251    -18.599520    -19.568626    9.836672    -50.513092    -7.000592    -17.394510    -97.740211    -14.507061    -22.277945    -22.104586    -0.729983    5.574629    -5.395776    32.176537    -11.812892    49.815670    -25.134296    -13.582641    64.978661    -11.838634    -1.254616    36.516556    19.749992    -3.293721    -1.258831    -14.427255    36.937271    -18.533947    6.194932    -26.549425    42.148636    0.000000    0.000000    0.000000    -17.748035    -13.020548    -15.274896    13.623662    31.629534    -15.417651    11.682879    3.493357    -20.283209    0.000000    0.000000    0.000000    
